<svg version="1.1" xmlns="http://www.w3.org/2000/svg">
    <defs>
        <symbol id="24x24_grid" height="24" viewBox="0 0 24 24" width="24">
            <path d="M13 21v-8h8v8h-8zm0-18h8v8h-8V3zM3 13h8v8H3v-8zM3 3h8v8H3V3z"></path>
          </symbol>
    <symbol id="24x24_close" height="24" viewBox="0 0 24 24" width="24">
            <path d="M17.657 19.07L12 13.415 6.343 19.07 4.93 17.658 10.585 12 4.93 6.343 6.342 4.93 12 10.585l5.657-5.657L19.07 6.34 13.416 12l5.657 5.657-1.413 1.414z"></path>
          </symbol>
          <symbol id="18x18_friends" height="18" viewBox="0 0 18 18" width="18">
            <g>
              <path d="M7.904 9.43l-2.098 4.697a.9.9 0 0 1-1.612 0L2.096 9.43a.902.902 0 0 1 .806-1.305h4.196c.67 0 1.105.705.806 1.305zM5 7.375a2 2 0 1 1 0-4 2 2 0 0 1 0 4z"></path>
              <path d="M15.904 9.43l-2.098 4.697a.89.89 0 0 1-.806.498.89.89 0 0 1-.806-.498L10.096 9.43a.902.902 0 0 1 .806-1.305h4.195c.67 0 1.106.705.807 1.305zM13 7.375a2 2 0 1 1 0-4 2 2 0 0 1 0 4z"
                opacity=".502"></path>
            </g>
          </symbol>
          <symbol id="18x18_review" height="18" viewBox="0 0 18 18" width="18">
            <path d="M13 3H5c-1.1 0-2 .9-2 2v8c0 1.1.9 2 2 2h8c1.1 0 2-.9 2-2V5c0-1.1-.9-2-2-2zm-1.505 9.643l-2.526-1.55L6.526 12.7 7 9.934 5 7.977l2.766-.404L8.97 4.7l1.264 2.873L13 7.977l-2 1.957.495 2.71z"></path>
          </symbol>
          <symbol id="18x18_grid" height="18" viewBox="0 0 18 18" width="18">
            <path d="M10 15v-5h5v5h-5zm0-12h5v5h-5V3zm-7 7h5v5H3v-5zm0-7h5v5H3V3z"></path>
          </symbol>
          <symbol id="18x18_share" height="18" viewBox="0 0 18 18" width="18">
            <path d="M17.714 6.43L13 10.356v-3.03c-1 0-5.097 1.47-6.286 3.62.274-3.08 4.286-5.5 6.286-5.5V2.5l4.714 3.93zM3 4v10h11v-2.5l1-1V15H2V3h8.5l-1 1H3z"></path>
          </symbol>
    </defs>
</svg>
